<svg width="20" height="24" viewBox="0 0 20 24" fill="none" xmlns="http://www.w3.org/2000/svg">
<path d="M18.1667 6.16659H14.6667V4.99992C14.6667 3.76224 14.1751 2.57526 13.2999 1.70009C12.4247 0.824917 11.2378 0.333252 10.0001 0.333252C8.7624 0.333252 7.57542 0.824917 6.70025 1.70009C5.82508 2.57526 5.33341 3.76224 5.33341 4.99992V6.16659H1.83341C1.52399 6.16659 1.22725 6.2895 1.00846 6.50829C0.789665 6.72709 0.666748 7.02383 0.666748 7.33325V20.1666C0.666748 21.0948 1.0355 21.9851 1.69187 22.6415C2.34825 23.2978 3.23849 23.6666 4.16675 23.6666H15.8334C16.7617 23.6666 17.6519 23.2978 18.3083 22.6415C18.9647 21.9851 19.3334 21.0948 19.3334 20.1666V7.33325C19.3334 7.02383 19.2105 6.72709 18.9917 6.50829C18.7729 6.2895 18.4762 6.16659 18.1667 6.16659ZM7.66674 4.99992C7.66674 4.38108 7.91258 3.78759 8.35016 3.35C8.78775 2.91242 9.38124 2.66659 10.0001 2.66659C10.6189 2.66659 11.2124 2.91242 11.65 3.35C12.0876 3.78759 12.3334 4.38108 12.3334 4.99992V6.16659H7.66674V4.99992ZM17.0001 20.1666C17.0001 20.476 16.8772 20.7728 16.6584 20.9915C16.4396 21.2103 16.1428 21.3333 15.8334 21.3333H4.16675C3.85733 21.3333 3.56058 21.2103 3.34179 20.9915C3.123 20.7728 3.00008 20.476 3.00008 20.1666V8.49992H5.33341V9.66659C5.33341 9.97601 5.45633 10.2728 5.67512 10.4915C5.89391 10.7103 6.19066 10.8333 6.50008 10.8333C6.8095 10.8333 7.10624 10.7103 7.32504 10.4915C7.54383 10.2728 7.66674 9.97601 7.66674 9.66659V8.49992H12.3334V9.66659C12.3334 9.97601 12.4563 10.2728 12.6751 10.4915C12.8939 10.7103 13.1907 10.8333 13.5001 10.8333C13.8095 10.8333 14.1062 10.7103 14.325 10.4915C14.5438 10.2728 14.6667 9.97601 14.6667 9.66659V8.49992H17.0001V20.1666Z" fill="white"/>
</svg>
