<svg aria-hidden="true" style="position: absolute; width: 0; height: 0; overflow: hidden;" version="1.1" xmlns="http://www.w3.org/2000/svg" xmlns:xlink="http://www.w3.org/1999/xlink">
<defs>
<symbol id="icon-logo" viewBox="0 0 40 40">
<path fill="#ae1332" style="fill: var(--color1, #ae1332)" d="M36.353 0.392h-5.012c-1.546 0-2.8 1.229-2.8 2.744v4.912c0 1.516 1.254 2.744 2.8 2.744h5.012c1.546 0 2.8-1.229 2.8-2.744v-4.912c0-1.516-1.254-2.744-2.8-2.744z"></path>
<path fill="#ae1332" style="fill: var(--color1, #ae1332)" d="M8.413 28.8h-5.397c-1.665 0-3.016 1.229-3.016 2.744v4.911c0 1.516 1.35 2.744 3.016 2.744h5.397c1.665 0 3.016-1.229 3.016-2.744v-4.911c0-1.516-1.35-2.744-3.016-2.744z"></path>
<path fill="#ae1332" style="fill: var(--color1, #ae1332)" d="M7.812 14.477h-5.012c-1.546 0-2.8 1.229-2.8 2.744v4.912c0 1.516 1.254 2.744 2.8 2.744h5.012c1.547 0 2.8-1.229 2.8-2.744v-4.912c0-1.516-1.254-2.744-2.8-2.744z"></path>
<path fill="#ae1332" style="fill: var(--color1, #ae1332)" d="M22.207 28.723h-5.012c-1.546 0-2.8 1.229-2.8 2.744l-0 4.911c0 1.516 1.254 2.744 2.801 2.744h5.012c1.547 0 2.8-1.229 2.8-2.744v-4.911c0-1.516-1.254-2.744-2.8-2.744z"></path>
<path fill="#ae1332" style="fill: var(--color1, #ae1332)" d="M7.812 0.108h-5.012c-1.546 0-2.8 1.229-2.8 2.744v4.912c0 1.516 1.254 2.744 2.8 2.744h5.012c1.547 0 2.8-1.229 2.8-2.744v-4.912c0-1.516-1.254-2.744-2.8-2.744z"></path>
<path fill="#ae1332" style="fill: var(--color1, #ae1332)" d="M22.595 14.622h-5.012c-1.546 0-2.8 1.229-2.8 2.744v4.912c0 1.516 1.254 2.744 2.8 2.744h5.012c1.547 0 2.8-1.229 2.8-2.744v-4.912c0-1.516-1.254-2.744-2.8-2.744z"></path>
<path fill="#ae1332" style="fill: var(--color1, #ae1332)" d="M36.667 28.723h-5.012c-1.546 0-2.8 1.229-2.8 2.744v4.911c0 1.516 1.254 2.744 2.8 2.744h5.012c1.546 0 2.8-1.229 2.8-2.744v-4.911c0-1.516-1.254-2.744-2.8-2.744z"></path>
<path fill="#ae1332" style="fill: var(--color1, #ae1332)" d="M21.988 0.28h-5.012c-1.546 0-2.8 1.229-2.8 2.744v4.912c0 1.516 1.254 2.744 2.8 2.744h5.012c1.547 0 2.8-1.23 2.8-2.745v-4.911c0-1.516-1.254-2.744-2.8-2.744z"></path>
<path fill="#ae1332" style="fill: var(--color1, #ae1332)" d="M36.305 14.907h-5.012c-1.546 0-2.8 1.229-2.8 2.744v4.912c0 1.516 1.254 2.744 2.8 2.744h5.012c1.546 0 2.8-1.229 2.8-2.744v-4.912c0-1.516-1.254-2.744-2.8-2.744z"></path>
</symbol>
<symbol id="icon-insta" viewBox="0 0 40 40">
<path fill="none" stroke="#ae1332" style="stroke: var(--color1, #ae1332)" stroke-linejoin="miter" stroke-linecap="butt" stroke-miterlimit="4" stroke-width="0.9091" d="M9.091 0.455h21.818c4.77 0 8.636 3.867 8.636 8.636v21.818c0 4.77-3.867 8.636-8.636 8.636h-21.818c-4.77 0-8.636-3.867-8.636-8.636v-21.818c0-4.77 3.867-8.636 8.636-8.636z"></path>
<path fill="#ae1332" style="fill: var(--color1, #ae1332)" opacity="0.8" d="M30.116 15.829c-0.012-0.855-0.171-1.702-0.474-2.502-0.53-1.365-1.61-2.444-2.977-2.972-0.79-0.297-1.626-0.456-2.472-0.474-1.088-0.048-1.433-0.062-4.194-0.062s-3.115 0-4.195 0.062c-0.845 0.018-1.68 0.177-2.471 0.474-1.367 0.528-2.448 1.608-2.977 2.972-0.297 0.789-0.458 1.623-0.474 2.467-0.049 1.087-0.063 1.432-0.063 4.188s0 3.109 0.063 4.188c0.017 0.844 0.176 1.678 0.474 2.469 0.53 1.364 1.61 2.443 2.979 2.971 0.787 0.307 1.623 0.481 2.471 0.508 1.089 0.049 1.434 0.063 4.195 0.063s3.115 0 4.195-0.063c0.845-0.017 1.68-0.176 2.472-0.473 1.367-0.529 2.447-1.609 2.977-2.972 0.297-0.79 0.457-1.623 0.474-2.469 0.049-1.086 0.063-1.43 0.063-4.188-0.002-2.757-0.002-3.107-0.066-4.187zM19.992 25.195c-2.888 0-5.228-2.336-5.228-5.219s2.34-5.219 5.228-5.219c2.886 0 5.228 2.336 5.228 5.219s-2.342 5.219-5.228 5.219zM25.428 15.781c-0.675 0-1.219-0.544-1.219-1.217s0.544-1.217 1.219-1.217c0.673 0 1.218 0.544 1.218 1.217s-0.545 1.217-1.218 1.217z"></path>
<path fill="#ae1332" style="fill: var(--color1, #ae1332)" opacity="0.8" d="M19.994 23.163c1.759 0 3.185-1.426 3.185-3.185s-1.426-3.185-3.185-3.185c-1.759 0-3.185 1.426-3.185 3.185s1.426 3.185 3.185 3.185z"></path>
</symbol>
<symbol id="icon-face" viewBox="0 0 40 40">
<path fill="none" stroke="#ae1332" style="stroke: var(--color1, #ae1332)" stroke-linejoin="miter" stroke-linecap="butt" stroke-miterlimit="4" stroke-width="0.9091" d="M9.091 0.455h21.818c4.77 0 8.636 3.867 8.636 8.636v21.818c0 4.77-3.867 8.636-8.636 8.636h-21.818c-4.77 0-8.636-3.867-8.636-8.636v-21.818c0-4.77 3.867-8.636 8.636-8.636z"></path>
<path fill="#ae1332" style="fill: var(--color1, #ae1332)" opacity="0.8" d="M22.8 10.964c0.191 0 0.382 0 0.764 0v2.864c-0.191 0-0.573 0-0.955 0s-0.764 0-0.955 0.191c-0.191 0.191-0.191 0.382-0.191 0.827 0 0.382 0 0.636 0 1.018h2.1v2.418h-2.1v10.5h-3.245v-10.564h-1.718v-2.418h1.718v-0.827c0-1.4 0.191-2.418 0.573-2.864 0.573-0.827 1.718-1.209 3.436-1.209 0.191 0.064 0.382 0.064 0.573 0.064z"></path>
</symbol>
<symbol id="icon-vector" viewBox="0 0 40 40">
<path d="M40 5.926l-5.926-5.926v29.63l-29.63-29.63-4.444 4.444 29.63 29.63h-29.63l5.926 5.926h34.074v-34.074z"></path>
</symbol>
<symbol id="icon-uil_cart" viewBox="0 0 40 40">
<path d="M31.666 11.667h-5v-1.667c0-1.768-0.702-3.464-1.953-4.714s-2.946-1.953-4.714-1.953c-1.768 0-3.464 0.702-4.714 1.953s-1.953 2.946-1.953 4.714v1.667h-5c-0.442 0-0.866 0.176-1.179 0.488s-0.488 0.736-0.488 1.179v18.333c0 1.326 0.527 2.598 1.464 3.536s2.209 1.464 3.536 1.464h16.667c1.326 0 2.598-0.527 3.535-1.464s1.465-2.21 1.465-3.536v-18.333c0-0.442-0.176-0.866-0.488-1.179s-0.737-0.488-1.179-0.488zM16.666 10c0-0.884 0.351-1.732 0.976-2.357s1.473-0.976 2.357-0.976c0.884 0 1.732 0.351 2.357 0.976s0.976 1.473 0.976 2.357v1.667h-6.667v-1.667zM30 31.667c0 0.442-0.176 0.866-0.488 1.178s-0.736 0.488-1.178 0.488h-16.667c-0.442 0-0.866-0.176-1.179-0.488s-0.488-0.736-0.488-1.178v-16.667h3.333v1.667c0 0.442 0.176 0.866 0.488 1.178s0.736 0.488 1.178 0.488c0.442 0 0.866-0.176 1.179-0.488s0.488-0.736 0.488-1.178v-1.667h6.667v1.667c0 0.442 0.176 0.866 0.488 1.178s0.736 0.488 1.178 0.488 0.866-0.176 1.179-0.488c0.313-0.312 0.488-0.736 0.488-1.178v-1.667h3.333v16.667z"></path>
</symbol>
<symbol id="icon-hamburger-mobile" viewBox="0 0 46 32">
<path fill="#ae1332" style="fill: var(--color1, #ae1332)" d="M0 2.274c0-1.257 1.019-2.274 2.274-2.274h18.309c0.603 0 1.182 0.24 1.608 0.666s0.666 1.005 0.666 1.608c0 0.603-0.24 1.182-0.666 1.608s-1.005 0.666-1.608 0.666h-18.309c-0.603 0-1.182-0.24-1.608-0.666s-0.666-1.005-0.666-1.608zM0 16c0-1.257 1.019-2.274 2.274-2.274h41.166c0.603 0 1.182 0.24 1.608 0.666s0.666 1.005 0.666 1.608c0 0.603-0.24 1.182-0.666 1.608s-1.005 0.666-1.608 0.666h-41.166c-0.603 0-1.182-0.24-1.608-0.666s-0.666-1.005-0.666-1.608zM2.274 27.451c-0.603 0-1.182 0.24-1.608 0.666s-0.666 1.005-0.666 1.608c0 0.603 0.24 1.182 0.666 1.608s1.005 0.666 1.608 0.666h27.451c0.603 0 1.182-0.24 1.608-0.666s0.666-1.005 0.666-1.608c0-0.603-0.24-1.182-0.666-1.608s-1.005-0.666-1.608-0.666h-27.451z"></path>
</symbol>
<symbol id="icon-x" viewBox="0 0 32 32">
<path fill="none" stroke="#000" stroke-linecap="round" stroke-linejoin="round" stroke-width="85.333" d="M768 256 256 768M256 256l512 512"/></svg>
</symbol>
<symbol id="icon-x-red" viewBox="0 0 32 32">
<path fill="none" stroke="#ae1332" style="stroke: var(#AE1332, #ae1332)" stroke-linejoin="round" stroke-linecap="round" stroke-miterlimit="4" stroke-width="2.6667" d="M24 8l-16 16"></path>
<path fill="none" stroke="#ae1332" style="stroke: var(#AE1332, #ae1332)" stroke-linejoin="round" stroke-linecap="round" stroke-miterlimit="4" stroke-width="2.6667" d="M8 8l16 16"></path>
</symbol>

<symbol id="icon-facebook2" viewBox="0 0 32 32">
<path d="M19 6h5v-6h-5c-3.86 0-7 3.14-7 7v3h-4v6h4v16h6v-16h5l1-6h-6v-3c0-0.542 0.458-1 1-1z"></path>
</symbol>
<symbol id="icon-instagram2" viewBox="0 0 32 32">
<path d="M16 2.881c4.275 0 4.781 0.019 6.462 0.094 1.563 0.069 2.406 0.331 2.969 0.55 0.744 0.288 1.281 0.638 1.837 1.194 0.563 0.563 0.906 1.094 1.2 1.838 0.219 0.563 0.481 1.412 0.55 2.969 0.075 1.688 0.094 2.194 0.094 6.463s-0.019 4.781-0.094 6.463c-0.069 1.563-0.331 2.406-0.55 2.969-0.288 0.744-0.637 1.281-1.194 1.837-0.563 0.563-1.094 0.906-1.837 1.2-0.563 0.219-1.413 0.481-2.969 0.55-1.688 0.075-2.194 0.094-6.463 0.094s-4.781-0.019-6.463-0.094c-1.563-0.069-2.406-0.331-2.969-0.55-0.744-0.288-1.281-0.637-1.838-1.194-0.563-0.563-0.906-1.094-1.2-1.837-0.219-0.563-0.481-1.413-0.55-2.969-0.075-1.688-0.094-2.194-0.094-6.463s0.019-4.781 0.094-6.463c0.069-1.563 0.331-2.406 0.55-2.969 0.288-0.744 0.638-1.281 1.194-1.838 0.563-0.563 1.094-0.906 1.838-1.2 0.563-0.219 1.412-0.481 2.969-0.55 1.681-0.075 2.188-0.094 6.463-0.094zM16 0c-4.344 0-4.887 0.019-6.594 0.094-1.7 0.075-2.869 0.35-3.881 0.744-1.056 0.412-1.95 0.956-2.837 1.85-0.894 0.888-1.438 1.781-1.85 2.831-0.394 1.019-0.669 2.181-0.744 3.881-0.075 1.713-0.094 2.256-0.094 6.6s0.019 4.887 0.094 6.594c0.075 1.7 0.35 2.869 0.744 3.881 0.413 1.056 0.956 1.95 1.85 2.837 0.887 0.887 1.781 1.438 2.831 1.844 1.019 0.394 2.181 0.669 3.881 0.744 1.706 0.075 2.25 0.094 6.594 0.094s4.888-0.019 6.594-0.094c1.7-0.075 2.869-0.35 3.881-0.744 1.050-0.406 1.944-0.956 2.831-1.844s1.438-1.781 1.844-2.831c0.394-1.019 0.669-2.181 0.744-3.881 0.075-1.706 0.094-2.25 0.094-6.594s-0.019-4.887-0.094-6.594c-0.075-1.7-0.35-2.869-0.744-3.881-0.394-1.063-0.938-1.956-1.831-2.844-0.887-0.887-1.781-1.438-2.831-1.844-1.019-0.394-2.181-0.669-3.881-0.744-1.712-0.081-2.256-0.1-6.6-0.1v0z"></path>
<path d="M16 7.781c-4.537 0-8.219 3.681-8.219 8.219s3.681 8.219 8.219 8.219 8.219-3.681 8.219-8.219c0-4.537-3.681-8.219-8.219-8.219zM16 21.331c-2.944 0-5.331-2.387-5.331-5.331s2.387-5.331 5.331-5.331c2.944 0 5.331 2.387 5.331 5.331s-2.387 5.331-5.331 5.331z"></path>
<path d="M26.462 7.456c0 1.060-0.859 1.919-1.919 1.919s-1.919-0.859-1.919-1.919c0-1.060 0.859-1.919 1.919-1.919s1.919 0.859 1.919 1.919z"></path>
</symbol>
<symbol id="icon-youtube2" viewBox="0 0 32 32">
<path d="M31.681 9.6c0 0-0.313-2.206-1.275-3.175-1.219-1.275-2.581-1.281-3.206-1.356-4.475-0.325-11.194-0.325-11.194-0.325h-0.012c0 0-6.719 0-11.194 0.325-0.625 0.075-1.987 0.081-3.206 1.356-0.963 0.969-1.269 3.175-1.269 3.175s-0.319 2.588-0.319 5.181v2.425c0 2.587 0.319 5.181 0.319 5.181s0.313 2.206 1.269 3.175c1.219 1.275 2.819 1.231 3.531 1.369 2.563 0.244 10.881 0.319 10.881 0.319s6.725-0.012 11.2-0.331c0.625-0.075 1.988-0.081 3.206-1.356 0.962-0.969 1.275-3.175 1.275-3.175s0.319-2.587 0.319-5.181v-2.425c-0.006-2.588-0.325-5.181-0.325-5.181zM12.694 20.15v-8.994l8.644 4.513-8.644 4.481z"></path>
</symbol>

</defs>
</svg>
