<svg aria-hidden="true" style="position: absolute; width: 0; height: 0; overflow: hidden;" version="1.1" xmlns="http://www.w3.org/2000/svg" xmlns:xlink="http://www.w3.org/1999/xlink">
<defs>
<symbol id="icon-logo" viewBox="0 0 40 40">
<path fill="#ae1332" style="fill: var(--color1, #ae1332)" d="M36.353 0.392h-5.012c-1.546 0-2.8 1.229-2.8 2.744v4.912c0 1.516 1.254 2.744 2.8 2.744h5.012c1.546 0 2.8-1.229 2.8-2.744v-4.912c0-1.516-1.254-2.744-2.8-2.744z"></path>
<path fill="#ae1332" style="fill: var(--color1, #ae1332)" d="M8.413 28.8h-5.397c-1.665 0-3.016 1.229-3.016 2.744v4.911c0 1.516 1.35 2.744 3.016 2.744h5.397c1.665 0 3.016-1.229 3.016-2.744v-4.911c0-1.516-1.35-2.744-3.016-2.744z"></path>
<path fill="#ae1332" style="fill: var(--color1, #ae1332)" d="M7.812 14.477h-5.012c-1.546 0-2.8 1.229-2.8 2.744v4.912c0 1.516 1.254 2.744 2.8 2.744h5.012c1.547 0 2.8-1.229 2.8-2.744v-4.912c0-1.516-1.254-2.744-2.8-2.744z"></path>
<path fill="#ae1332" style="fill: var(--color1, #ae1332)" d="M22.207 28.723h-5.012c-1.546 0-2.8 1.229-2.8 2.744l-0 4.911c0 1.516 1.254 2.744 2.801 2.744h5.012c1.547 0 2.8-1.229 2.8-2.744v-4.911c0-1.516-1.254-2.744-2.8-2.744z"></path>
<path fill="#ae1332" style="fill: var(--color1, #ae1332)" d="M7.812 0.108h-5.012c-1.546 0-2.8 1.229-2.8 2.744v4.912c0 1.516 1.254 2.744 2.8 2.744h5.012c1.547 0 2.8-1.229 2.8-2.744v-4.912c0-1.516-1.254-2.744-2.8-2.744z"></path>
<path fill="#ae1332" style="fill: var(--color1, #ae1332)" d="M22.595 14.622h-5.012c-1.546 0-2.8 1.229-2.8 2.744v4.912c0 1.516 1.254 2.744 2.8 2.744h5.012c1.547 0 2.8-1.229 2.8-2.744v-4.912c0-1.516-1.254-2.744-2.8-2.744z"></path>
<path fill="#ae1332" style="fill: var(--color1, #ae1332)" d="M36.667 28.723h-5.012c-1.546 0-2.8 1.229-2.8 2.744v4.911c0 1.516 1.254 2.744 2.8 2.744h5.012c1.546 0 2.8-1.229 2.8-2.744v-4.911c0-1.516-1.254-2.744-2.8-2.744z"></path>
<path fill="#ae1332" style="fill: var(--color1, #ae1332)" d="M21.988 0.28h-5.012c-1.546 0-2.8 1.229-2.8 2.744v4.912c0 1.516 1.254 2.744 2.8 2.744h5.012c1.547 0 2.8-1.23 2.8-2.745v-4.911c0-1.516-1.254-2.744-2.8-2.744z"></path>
<path fill="#ae1332" style="fill: var(--color1, #ae1332)" d="M36.305 14.907h-5.012c-1.546 0-2.8 1.229-2.8 2.744v4.912c0 1.516 1.254 2.744 2.8 2.744h5.012c1.546 0 2.8-1.229 2.8-2.744v-4.912c0-1.516-1.254-2.744-2.8-2.744z"></path>
</symbol>
<symbol id="icon-instagram" viewBox="0 0 32 32">
<path fill="#ae1332" style="fill: var(--color1, #ae1332)" opacity="0.8" d="M28.717 10.756c-0.016-1.134-0.233-2.213-0.617-3.209l0.021 0.063c-0.681-1.722-2.020-3.059-3.698-3.722l-0.044-0.015c-0.92-0.356-1.985-0.572-3.097-0.596l-0.010-0c-1.368-0.060-1.803-0.077-5.273-0.077-3.472 0-3.917 0-5.275 0.077-1.122 0.024-2.186 0.24-3.171 0.618l0.064-0.022c-1.723 0.678-3.062 2.015-3.727 3.693l-0.015 0.044c-0.357 0.919-0.573 1.982-0.595 3.092l-0 0.009c-0.061 1.367-0.080 1.8-0.080 5.265 0 3.467 0 3.908 0.080 5.265 0.022 1.121 0.239 2.184 0.616 3.168l-0.022-0.064c0.682 1.721 2.022 3.057 3.701 3.719l0.044 0.015c0.917 0.37 1.98 0.602 3.091 0.64l0.016 0c1.368 0.060 1.801 0.079 5.273 0.079s3.916 0 5.275-0.080c1.122-0.023 2.186-0.239 3.171-0.616l-0.064 0.022c1.722-0.679 3.060-2.016 3.727-3.692l0.016-0.044c0.357-0.92 0.573-1.983 0.596-3.094l0-0.010c0.061-1.365 0.080-1.799 0.080-5.267-0.003-3.465-0.003-3.904-0.083-5.263zM15.989 22.531c-0.002 0-0.004 0-0.007 0-3.624 0-6.562-2.936-6.565-6.56v-0c0.002-3.624 2.941-6.561 6.565-6.561 0.003 0 0.006 0 0.008 0h-0c0.001 0 0.003 0 0.004 0 3.624 0 6.563 2.936 6.567 6.56v0c-0.003 3.624-2.942 6.561-6.567 6.561-0.002 0-0.004 0-0.006 0h0zM22.824 10.696c-0.845 0-1.53-0.685-1.53-1.53s0.685-1.53 1.53-1.53v0c0.845 0 1.53 0.685 1.53 1.53s-0.685 1.53-1.53 1.53v0z"></path>
<path fill="#ae1332" style="fill: var(--color1, #ae1332)" opacity="0.8" d="M15.992 19.976c2.211 0 4.004-1.793 4.004-4.004s-1.793-4.004-4.004-4.004v0c-2.211 0-4.004 1.793-4.004 4.004s1.793 4.004 4.004 4.004v0z"></path>
</symbol>
<symbol id="icon-youtube" viewBox="0 0 32 32">
<path fill="#ae1332" style="fill: var(--color1, #ae1332)" opacity="0.8" d="M24.24 6c-1.36-0.080-4.16-0.16-8.4-0.16h-0.56c-4.080 0-6.8 0.080-8.16 0.24-1.84 0.16-3.12 0.64-3.84 1.28-0.64 0.56-1.12 1.6-1.28 2.96-0.080 0.88-0.16 2.72-0.16 5.52v0.4c0 2.64 0.080 4.48 0.24 5.36 0.24 1.28 0.64 2.24 1.44 2.8 0.8 0.64 2.16 1.040 4.080 1.2 1.36 0.080 4.16 0.16 8.4 0.16h0.56c4.080 0 6.8-0.080 8.16-0.24 1.84-0.16 3.12-0.64 3.84-1.28 0.64-0.56 1.12-1.6 1.28-2.96 0.080-0.88 0.16-2.72 0.16-5.52v-0.4c0-2.64-0.080-4.48-0.24-5.36-0.24-1.28-0.64-2.24-1.44-2.8-0.8-0.64-2.16-1.040-4.080-1.2zM21.12 15.84l-8.8 5.28v-10.56l8.8 5.28z"></path>
</symbol>
<symbol id="icon-facebook" viewBox="0 0 32 32">
<path fill="#ae1332" style="fill: var(--color1, #ae1332)" d="M19.52 4.64h0.96v3.6h-1.2c-0.48 0-0.96 0-1.2 0.24s-0.24 0.48-0.24 1.040v1.28h2.64v3.040h-2.64v13.2h-4.080v-13.28h-2.16v-3.040h2.16v-1.040c0-1.76 0.24-3.040 0.72-3.6 0.72-1.040 2.16-1.52 4.32-1.52 0.24 0.080 0.48 0.080 0.72 0.080z"></path>
</symbol>
<symbol id="icon-vector" viewBox="0 0 40 40">
<path d="M40 5.926l-5.926-5.926v29.63l-29.63-29.63-4.444 4.444 29.63 29.63h-29.63l5.926 5.926h34.074v-34.074z"></path>
</symbol>
<symbol id="icon-uil_cart" viewBox="0 0 40 40">
<path d="M31.666 11.667h-5v-1.667c0-1.768-0.702-3.464-1.953-4.714s-2.946-1.953-4.714-1.953c-1.768 0-3.464 0.702-4.714 1.953s-1.953 2.946-1.953 4.714v1.667h-5c-0.442 0-0.866 0.176-1.179 0.488s-0.488 0.736-0.488 1.179v18.333c0 1.326 0.527 2.598 1.464 3.536s2.209 1.464 3.536 1.464h16.667c1.326 0 2.598-0.527 3.535-1.464s1.465-2.21 1.465-3.536v-18.333c0-0.442-0.176-0.866-0.488-1.179s-0.737-0.488-1.179-0.488zM16.666 10c0-0.884 0.351-1.732 0.976-2.357s1.473-0.976 2.357-0.976c0.884 0 1.732 0.351 2.357 0.976s0.976 1.473 0.976 2.357v1.667h-6.667v-1.667zM30 31.667c0 0.442-0.176 0.866-0.488 1.178s-0.736 0.488-1.178 0.488h-16.667c-0.442 0-0.866-0.176-1.179-0.488s-0.488-0.736-0.488-1.178v-16.667h3.333v1.667c0 0.442 0.176 0.866 0.488 1.178s0.736 0.488 1.178 0.488c0.442 0 0.866-0.176 1.179-0.488s0.488-0.736 0.488-1.178v-1.667h6.667v1.667c0 0.442 0.176 0.866 0.488 1.178s0.736 0.488 1.178 0.488 0.866-0.176 1.179-0.488c0.313-0.312 0.488-0.736 0.488-1.178v-1.667h3.333v16.667z"></path>
</symbol>
<symbol id="icon-hamburger-mobile" viewBox="0 0 46 32">
<path fill="#ae1332" style="fill: var(--color1, #ae1332)" d="M0 2.274c0-1.257 1.019-2.274 2.274-2.274h18.309c0.603 0 1.182 0.24 1.608 0.666s0.666 1.005 0.666 1.608c0 0.603-0.24 1.182-0.666 1.608s-1.005 0.666-1.608 0.666h-18.309c-0.603 0-1.182-0.24-1.608-0.666s-0.666-1.005-0.666-1.608zM0 16c0-1.257 1.019-2.274 2.274-2.274h41.166c0.603 0 1.182 0.24 1.608 0.666s0.666 1.005 0.666 1.608c0 0.603-0.24 1.182-0.666 1.608s-1.005 0.666-1.608 0.666h-41.166c-0.603 0-1.182-0.24-1.608-0.666s-0.666-1.005-0.666-1.608zM2.274 27.451c-0.603 0-1.182 0.24-1.608 0.666s-0.666 1.005-0.666 1.608c0 0.603 0.24 1.182 0.666 1.608s1.005 0.666 1.608 0.666h27.451c0.603 0 1.182-0.24 1.608-0.666s0.666-1.005 0.666-1.608c0-0.603-0.24-1.182-0.666-1.608s-1.005-0.666-1.608-0.666h-27.451z"></path>
</symbol>
<symbol id="icon-x" viewBox="0 0 32 32">
<path fill="#ae1332" stroke="#ae1332" stroke-linecap="round" stroke-linejoin="round" stroke-width="2.667" d="M24 8 8 24M8 8l16 16" style="stroke:var(--color1, #ae1332)"/>
</symbol>
<symbol id="icon-x-white" viewBox="0 0 32 32">
<path fill="#fff" stroke="#fff" stroke-linecap="round" stroke-linejoin="round" stroke-width="2.667" d="M24 8 8 24M8 8l16 16" style="stroke:var(--color2, #fff)"/>
</symbol>
<symbol id="icon-arrow" viewBox="0 0 32 32">
<path d="M32 4.741 27.259 0v23.704L3.555 0-.001 3.556 23.703 27.26H-.001l4.741 4.741h27.259V4.742z" />
</symbol>
</defs>
</svg>
